<?xml version="1.0" encoding="UTF-8"?><svg id="Layer_2" xmlns="http://www.w3.org/2000/svg" viewBox="0 0 1920 949.34"><defs><style>.cls-1{fill:#1295d8;}</style></defs><g id="Layer_1-2"><g id="Compund_Wordmark"><path class="cls-1" d="m0,0v293.08h1920V0H0Zm234.57,162.02c0,55.01-28.72,85.3-80.86,85.3s-83.42-29.23-83.42-82.32V48.87h36.57v112.41c0,39.07,13.92,55,48.03,55,30.75,0,45.69-16.89,45.69-51.62V48.87h33.99v113.14Zm236.45,81.97h-32.26l-90.06-123.33c-4.96-7.23-9.71-15.15-12.97-20.82.25,4.56.49,10.3.49,15.81v128.34h-33.95V48.87h35.54l.66.88,84.25,115.45c6.58,9.26,12.27,18.86,15.85,25.05-.42-5.67-.87-13.69-.87-21.55V48.87h33.33v195.11Zm107.57,0h-36.24V48.87h36.24v195.11Zm161.2,0h-34.14l-.56-1.35-78.38-193.76h38.45l48.78,126.5c3.22,8.15,7.26,19.93,9.53,27.12,2.27-7.13,6.27-18.81,9.44-27.11l46.9-126.51h35.51l-75.51,195.11Zm245.25,0h-122.71V48.87h120.89v30.32h-84.67v47.97h75.74v29.59h-75.74v56.89h86.49v30.34Zm170.42,0l-39.29-55.48c-18.98-26.46-22.81-27.64-33.09-27.64h-1.18v83.12h-36.21V48.87h61.88c46.63,0,72.32,19.5,72.32,54.92,0,28.29-18.15,46.97-49.99,51.71,5.22,4.76,12.01,12.86,19.92,23.77l47.84,64.71h-42.19Zm134.37,3.33c-36.25,0-55.47-14.9-60.49-19.47l-1.34-1.21,16.32-26.2,3.15,2.32c5.75,4.28,19.23,14.28,41.95,14.28s35.32-9.42,35.32-24.58c0-16.29-13.36-22.35-35.5-32.38-2.95-1.32-6.01-2.73-9.23-4.22-22.49-10.24-46.53-23.95-46.53-56.94s26.2-53.72,63.73-53.72c29.61,0,45.77,8.53,56.53,15.95l1.68,1.17-15.93,26.32-1.9-1.29c-5.25-3.58-19.56-11.86-39.26-11.86-8.83,0-29.38,2.14-29.38,21.98,0,15.36,12.23,20.77,30.73,28.97l4.74,2.11c23.41,10.36,55.45,24.54,55.45,62.47,0,34.22-27.49,56.31-70.03,56.31Zm164.7-3.33h-36.24V48.87h36.24v195.11Zm202.65-164.39h-58.28v164.39h-36.64V79.6h-58.24v-30.72h153.16v30.72Zm133.96,90.36v74.02h-36.21v-74l-68.74-121.11h39.88l48.08,88.9,47.33-88.9h36.12l-66.46,121.09Zm-20.85,603.33c-4.24-11.14-8.15-22.89-10.27-29.47-2.19,6.7-6.19,18.73-10.18,29.45l-21.18,55.38h63.11l-21.48-55.36ZM517.85,328.11H0v293.1h517.85v-293.1Zm-354.85,247.8c-67.94,0-103.49-50.6-103.49-100.58s35.3-101.64,102.76-101.64,102.77,50.57,102.77,100.52-35.05,101.7-102.04,101.7Zm273.1-168.22h-82.79v49.92h73.13v29.88h-73.13v85.05h-36.25v-195.1h119.03v30.25Zm-273.1-3.7c-44.92,0-65.03,35.28-65.03,70.23,0,32.76,16.84,71.02,64.3,71.02s64.65-37.66,64.65-69.9-16.74-71.35-63.92-71.35ZM1142.86,105.2c0-18.78-11.68-27.16-37.9-27.16h-23.08v54.75h24.95c24.92,0,36.03-8.5,36.03-27.6Zm112.9,656.58c0-18.78-11.72-27.17-37.98-27.17h-23.03v54.71h24.91c24.97,0,36.1-8.5,36.1-27.54Zm-243.58,111.39c47.69,0,64.63-37.64,64.63-69.86s-16.73-71.3-63.89-71.3-65.05,35.25-65.05,70.19c0,32.73,16.85,70.97,64.31,70.97ZM0,949.34h1920v-293.11H0v293.11Zm1744.09-243.91h34.09l79.34,195.09h-38.08l-16.34-41.53h-85.75l-15.58,41.53h-36.23l78.54-195.09Zm-158.47,0h36.27v195.09h-36.27v-195.09Zm-234.95,0h35.56l84.97,116.32c6.52,9.23,12.24,18.84,15.82,25.02-.39-5.69-.82-13.69-.82-21.53v-119.81h33.25v195.09h-32.19l-90.11-123.32c-4.94-7.25-9.64-15.17-12.9-20.8.24,4.54.47,10.25.47,15.77v128.35h-34.04v-195.09Zm-192.27,0h62.02c46.62,0,72.27,19.48,72.27,54.87,0,28.37-18.17,47.03-50.09,51.67,5.21,4.7,11.91,12.7,20.01,23.88l47.8,64.67h-42.13l-39.3-55.48c-19.12-26.56-22.91-27.74-33.11-27.74h-1.15v83.21h-36.33v-195.09Zm-146.23-3.74c67.47,0,102.79,50.55,102.79,100.51s-35.04,101.69-102.05,101.69-103.51-50.6-103.51-100.58,35.31-101.62,102.77-101.62Zm-258.65,3.74h119.03v30.26h-82.75v49.88h73.11v29.89h-73.11v85.06h-36.28v-195.09Zm-102.81,0h36.28v195.09h-36.28v-195.09Zm-167.74,0h37.03v164.75h80.52v30.34h-117.55v-195.09Zm-154.77,0h34.09l79.34,195.09h-38.08l-16.34-41.53h-85.73l-15.6,41.53h-36.3l78.62-195.09Zm-165.58-3.74c23.99,0,42.11,4.79,58.75,15.53l1.81,1.17-17.57,27.43-1.82-1.2c-12.2-8.09-25.5-11.87-41.87-11.87-39.44,0-63.94,26.32-63.94,68.7,0,44.7,24.17,71.38,64.64,71.38,22.9,0,37.16-8.44,45.89-14.8l1.92-1.4,15.54,26.19-1.38,1.2c-10.73,9.17-33.68,19.88-63.07,19.88-70.09,0-102.01-52.51-102.01-101.31,0-59.39,42.4-100.89,103.11-100.89Zm191.74,71.6c-4.19-11.11-8.12-22.82-10.26-29.39-2.21,6.7-6.23,18.7-10.19,29.36l-21.15,55.4h63.07l-21.47-55.36Z"/></g></g></svg>